<svg width="16" height="16" viewBox="0 0 16 16" fill="none" xmlns="http://www.w3.org/2000/svg">
    <g clip-path="url(#clip0_261_977)">
        <path d="M15.7401 7.22381L14.5948 4.82914C14.4494 4.52581 14.1001 4.37714 13.7821 4.48448L7.99744 6.41514L2.20478 4.48514C1.88678 4.37914 1.53744 4.52648 1.39211 4.83048L0.290776 7.14581C-0.0272235 7.67381 -0.0872235 8.30781 0.12611 8.88514C0.332776 9.44514 0.768776 9.87914 1.32678 10.0818L1.32278 11.6251C1.32278 13.0631 2.23811 14.3351 3.60211 14.7898L6.51211 15.7605C6.98811 15.9185 7.48811 15.9978 7.98811 15.9978C8.48811 15.9978 8.98811 15.9185 9.46411 15.7598L12.3768 14.7891C13.7394 14.3345 14.6554 13.0651 14.6561 11.6305L14.6601 10.0825C15.2241 9.88514 15.6654 9.45248 15.8728 8.89048C16.0834 8.31848 16.0241 7.69048 15.7401 7.22381ZM1.46278 7.77714L2.34144 5.93514L7.05144 7.50448L5.97144 9.67514C5.81011 9.94581 5.48544 10.0645 5.18878 9.96581L1.80144 8.83581C1.60278 8.76981 1.44811 8.61981 1.37544 8.42381C1.30344 8.22848 1.32411 8.01314 1.46278 7.77714ZM4.02411 13.5258C3.20544 13.2525 2.65544 12.4891 2.65611 11.6271L2.65878 10.5271L4.76811 11.2305C5.66544 11.5278 6.63011 11.1705 7.14078 10.3158L7.32544 9.94581L7.32278 14.5985C7.19144 14.5718 7.06211 14.5378 6.93478 14.4958L4.02478 13.5258H4.02411ZM11.9548 13.5245L9.04211 14.4951C8.91544 14.5371 8.78611 14.5718 8.65544 14.5985L8.65811 9.93514L8.87078 10.3618C9.24211 10.9805 9.89211 11.3351 10.5788 11.3351C10.7908 11.3351 11.0074 11.3011 11.2188 11.2305L13.3254 10.5285L13.3228 11.6291C13.3228 12.4905 12.7728 13.2518 11.9548 13.5245ZM14.6214 8.42781C14.5514 8.61781 14.4008 8.76381 14.2088 8.82848L10.7968 9.96514C10.5048 10.0631 10.1734 9.94114 10.0394 9.72181L8.93678 7.50714L13.6461 5.93581L14.5674 7.85581C14.6714 8.02981 14.6921 8.23781 14.6214 8.42781ZM3.47611 3.93048C3.21544 3.66981 3.21544 3.24848 3.47611 2.98781L6.07411 0.390477C6.59344 -0.128857 7.44011 -0.128857 7.95944 0.390477L9.02344 1.45448C9.52544 1.19781 10.1821 1.27448 10.5921 1.68448L12.0954 3.18781C12.3561 3.44848 12.3561 3.86981 12.0954 4.13048C11.8348 4.39114 11.4134 4.39114 11.1528 4.13048L9.64944 2.62714L7.54878 4.72781C7.41878 4.85781 7.24811 4.92314 7.07744 4.92314C6.90678 4.92314 6.73611 4.85781 6.60611 4.72781C6.34544 4.46714 6.34544 4.04581 6.60611 3.78514L8.03744 2.35381L7.01744 1.33381L4.41944 3.93114C4.28944 4.06114 4.11878 4.12648 3.94811 4.12648C3.77744 4.12648 3.60678 4.06114 3.47678 3.93114L3.47611 3.93048Z"
              fill="#E83434"/>
    </g>
    <defs>
        <clipPath id="clip0_261_977">
            <rect width="16" height="16" fill="white"/>
        </clipPath>
    </defs>
</svg>
