<svg width="16" height="16" viewBox="0 0 16 16" fill="none" xmlns="http://www.w3.org/2000/svg">
<g clip-path="url(#clip0_261_979)">
<path d="M13.6667 15.9999C13.5113 16 13.3582 15.9638 13.2192 15.8944C13.0803 15.8249 12.9595 15.724 12.8663 15.5997C12.7732 15.4755 12.7102 15.3312 12.6825 15.1784C12.6548 15.0255 12.6631 14.8684 12.7067 14.7193C12.786 14.4459 12.8753 14.1913 12.964 13.9406C13.778 12.2953 13.0687 9.98661 12.1693 8.84194C11.3166 7.64944 10.8118 6.24351 10.7113 4.78093C10.6108 3.31834 10.9184 1.85658 11.6 0.558611C11.7171 0.319916 11.9241 0.137495 12.1757 0.0514781C12.4272 -0.0345386 12.7026 -0.0171048 12.9413 0.0999441C13.18 0.216993 13.3625 0.424069 13.4485 0.675618C13.5345 0.927167 13.5171 1.20258 13.4 1.44128C12.8719 2.4232 12.6323 3.53445 12.7089 4.64674C12.7854 5.75902 13.175 6.82697 13.8327 7.72728C15.01 9.16861 15.9087 12.4746 14.852 14.6066C14.776 14.8233 14.698 15.0433 14.628 15.2806C14.5672 15.4884 14.4407 15.6709 14.2673 15.8006C14.094 15.9303 13.8832 16.0003 13.6667 15.9999ZM9 15.9999C8.84468 16 8.69149 15.9638 8.55257 15.8944C8.41365 15.8249 8.29282 15.724 8.19966 15.5997C8.1065 15.4755 8.04357 15.3312 8.01585 15.1784C7.98814 15.0255 7.99641 14.8684 8.04 14.7193C8.11934 14.4459 8.20867 14.1913 8.29733 13.9406C9.11133 12.2953 8.402 9.98661 7.50267 8.84194C6.64992 7.64944 6.14514 6.24351 6.04461 4.78093C5.94409 3.31834 6.25176 1.85658 6.93333 0.558611C7.05038 0.319916 7.25746 0.137495 7.50901 0.0514781C7.76056 -0.0345386 8.03597 -0.0171049 8.27467 0.099944C8.51336 0.216993 8.69578 0.424069 8.7818 0.675618C8.86782 0.927167 8.85038 1.20258 8.73334 1.44128C8.20526 2.4232 7.96566 3.53445 8.04222 4.64674C8.11878 5.75902 8.50837 6.82697 9.166 7.72728C10.3433 9.16861 11.242 12.4746 10.1853 14.6066C10.1093 14.8233 10.0313 15.0433 9.96134 15.2806C9.90057 15.4884 9.77399 15.6709 9.60064 15.8006C9.42729 15.9303 9.21651 16.0003 9 15.9999ZM4.33333 15.9999C4.17801 16 4.02482 15.9638 3.8859 15.8944C3.74698 15.8249 3.62615 15.724 3.53299 15.5997C3.43983 15.4755 3.3769 15.3312 3.34919 15.1784C3.32147 15.0255 3.32974 14.8684 3.37333 14.7193C3.45267 14.4459 3.542 14.1913 3.63067 13.9406C4.44467 12.2953 3.73533 9.98661 2.836 8.84194C1.98325 7.64944 1.47847 6.24351 1.37795 4.78093C1.27742 3.31834 1.58509 1.85658 2.26667 0.558611C2.38372 0.319916 2.59079 0.137495 2.84234 0.0514781C3.09389 -0.0345386 3.36931 -0.0171048 3.608 0.0999441C3.8467 0.216993 4.02912 0.424069 4.11513 0.675618C4.20115 0.927167 4.18372 1.20258 4.06667 1.44128C3.53859 2.4232 3.299 3.53445 3.37555 4.64674C3.45211 5.75902 3.8417 6.82697 4.49933 7.72728C5.67467 9.16861 6.57333 12.4746 5.51667 14.6066C5.44067 14.8233 5.36267 15.0433 5.29267 15.2806C5.232 15.4881 5.10572 15.6703 4.93277 15.8C4.75982 15.9297 4.54951 15.9998 4.33333 15.9999Z" fill="#5E402F"/>
</g>
<defs>
<clipPath id="clip0_261_979">
<rect width="16" height="16" fill="white"/>
</clipPath>
</defs>
</svg>
