<svg width="16" height="15" viewBox="0 0 16 15" fill="none" xmlns="http://www.w3.org/2000/svg">
<path d="M15.3334 0.999582H8.66677C8.48996 0.999582 8.32039 1.06982 8.19536 1.19484C8.07034 1.31987 8.0001 1.48944 8.0001 1.66625V3.84624L6.4001 1.07291C6.28335 0.869298 6.11491 0.70011 5.91181 0.582451C5.70871 0.464793 5.47815 0.402832 5.24344 0.402832C5.00872 0.402832 4.77816 0.464793 4.57506 0.582451C4.37196 0.70011 4.20353 0.869298 4.08677 1.07291V1.07291L0.0867682 7.99957C0.028256 8.10092 -0.00254822 8.21588 -0.00254822 8.33291C-0.00254822 8.44993 0.028256 8.56489 0.0867682 8.66624C0.145504 8.76797 0.23008 8.85238 0.331932 8.91092C0.433784 8.96945 0.549295 9.00004 0.666768 8.99957H3.52677C3.39733 9.43214 3.33219 9.88139 3.33344 10.3329C3.33344 11.5706 3.8251 12.7576 4.70027 13.6327C5.57544 14.5079 6.76243 14.9996 8.0001 14.9996C9.23778 14.9996 10.4248 14.5079 11.2999 13.6327C12.1751 12.7576 12.6668 11.5706 12.6668 10.3329C12.668 9.88139 12.6029 9.43214 12.4734 8.99957H15.3334C15.5102 8.99957 15.6798 8.92933 15.8048 8.80431C15.9299 8.67928 16.0001 8.50972 16.0001 8.33291V1.66625C16.0001 1.48944 15.9299 1.31987 15.8048 1.19484C15.6798 1.06982 15.5102 0.999582 15.3334 0.999582V0.999582ZM1.8201 7.66624L5.2401 1.73958L7.52677 5.66624C6.86006 5.74044 6.21717 5.9575 5.64194 6.30264C5.06671 6.64778 4.57265 7.11288 4.19344 7.66624H1.8201ZM8.0001 13.6662C7.34083 13.6662 6.69637 13.4707 6.1482 13.1045C5.60004 12.7382 5.1728 12.2176 4.9205 11.6085C4.66821 10.9994 4.6022 10.3292 4.73082 9.6826C4.85944 9.036 5.1769 8.44206 5.64308 7.97588C6.10925 7.50971 6.7032 7.19224 7.3498 7.06362C7.99641 6.93501 8.66663 7.00102 9.27571 7.25331C9.8848 7.5056 10.4054 7.93284 10.7717 8.481C11.1379 9.02917 11.3334 9.67363 11.3334 10.3329C11.3334 11.217 10.9822 12.0648 10.3571 12.6899C9.732 13.315 8.88416 13.6662 8.0001 13.6662V13.6662ZM14.6668 7.66624H11.8268C11.2213 6.80187 10.3434 6.16569 9.33344 5.85958V2.33291H14.6668V7.66624Z" fill="#D08513"/>
</svg>
