<svg width="16" height="16" viewBox="0 0 16 16" fill="none" xmlns="http://www.w3.org/2000/svg">
    <g clip-path="url(#clip0_259_838)">
        <path d="M4.66667 0H2.66667C1.95942 0 1.28115 0.280952 0.781049 0.781049C0.280952 1.28115 0 1.95942 0 2.66667L0 4.66667C0 5.37391 0.280952 6.05219 0.781049 6.55229C1.28115 7.05238 1.95942 7.33333 2.66667 7.33333H4.66667C5.37391 7.33333 6.05219 7.05238 6.55229 6.55229C7.05238 6.05219 7.33333 5.37391 7.33333 4.66667V2.66667C7.33333 1.95942 7.05238 1.28115 6.55229 0.781049C6.05219 0.280952 5.37391 0 4.66667 0V0ZM6 4.66667C6 5.02029 5.85952 5.35943 5.60948 5.60948C5.35943 5.85952 5.02029 6 4.66667 6H2.66667C2.31304 6 1.97391 5.85952 1.72386 5.60948C1.47381 5.35943 1.33333 5.02029 1.33333 4.66667V2.66667C1.33333 2.31304 1.47381 1.97391 1.72386 1.72386C1.97391 1.47381 2.31304 1.33333 2.66667 1.33333H4.66667C5.02029 1.33333 5.35943 1.47381 5.60948 1.72386C5.85952 1.97391 6 2.31304 6 2.66667V4.66667Z"
              fill="#C1B19D"/>
        <path d="M13.3332 0H11.3332C10.626 0 9.94771 0.280952 9.44762 0.781049C8.94752 1.28115 8.66657 1.95942 8.66657 2.66667V4.66667C8.66657 5.37391 8.94752 6.05219 9.44762 6.55229C9.94771 7.05239 10.626 7.33334 11.3332 7.33334H13.3332C14.0405 7.33334 14.7187 7.05239 15.2188 6.55229C15.7189 6.05219 15.9999 5.37391 15.9999 4.66667V2.66667C15.9999 1.95942 15.7189 1.28115 15.2188 0.781049C14.7187 0.280952 14.0405 0 13.3332 0V0ZM14.6666 4.66667C14.6666 5.02029 14.5261 5.35943 14.276 5.60948C14.026 5.85953 13.6869 6 13.3332 6H11.3332C10.9796 6 10.6405 5.85953 10.3904 5.60948C10.1404 5.35943 9.9999 5.02029 9.9999 4.66667V2.66667C9.9999 2.31305 10.1404 1.97391 10.3904 1.72386C10.6405 1.47381 10.9796 1.33333 11.3332 1.33333H13.3332C13.6869 1.33333 14.026 1.47381 14.276 1.72386C14.5261 1.97391 14.6666 2.31305 14.6666 2.66667V4.66667Z"
              fill="#C1B19D"/>
        <path d="M4.66666 8.6665H2.66666C1.95942 8.6665 1.28114 8.94746 0.781045 9.44755C0.280948 9.94765 -3.8147e-06 10.6259 -3.8147e-06 11.3332L-3.8147e-06 13.3332C-3.8147e-06 14.0404 0.280948 14.7187 0.781045 15.2188C1.28114 15.7189 1.95942 15.9998 2.66666 15.9998H4.66666C5.37391 15.9998 6.05218 15.7189 6.55228 15.2188C7.05238 14.7187 7.33333 14.0404 7.33333 13.3332V11.3332C7.33333 10.6259 7.05238 9.94765 6.55228 9.44755C6.05218 8.94746 5.37391 8.6665 4.66666 8.6665V8.6665ZM6 13.3332C6 13.6868 5.85952 14.0259 5.60947 14.276C5.35942 14.526 5.02029 14.6665 4.66666 14.6665H2.66666C2.31304 14.6665 1.9739 14.526 1.72385 14.276C1.47381 14.0259 1.33333 13.6868 1.33333 13.3332V11.3332C1.33333 10.9796 1.47381 10.6404 1.72385 10.3904C1.9739 10.1403 2.31304 9.99984 2.66666 9.99984H4.66666C5.02029 9.99984 5.35942 10.1403 5.60947 10.3904C5.85952 10.6404 6 10.9796 6 11.3332V13.3332Z"
              fill="#C1B19D"/>
        <path d="M13.3332 8.6665H11.3332C10.626 8.6665 9.94771 8.94746 9.44762 9.44755C8.94752 9.94765 8.66657 10.6259 8.66657 11.3332V13.3332C8.66657 14.0404 8.94752 14.7187 9.44762 15.2188C9.94771 15.7189 10.626 15.9998 11.3332 15.9998H13.3332C14.0405 15.9998 14.7187 15.7189 15.2188 15.2188C15.7189 14.7187 15.9999 14.0404 15.9999 13.3332V11.3332C15.9999 10.6259 15.7189 9.94765 15.2188 9.44755C14.7187 8.94746 14.0405 8.6665 13.3332 8.6665V8.6665ZM14.6666 13.3332C14.6666 13.6868 14.5261 14.0259 14.276 14.276C14.026 14.526 13.6869 14.6665 13.3332 14.6665H11.3332C10.9796 14.6665 10.6405 14.526 10.3904 14.276C10.1404 14.0259 9.9999 13.6868 9.9999 13.3332V11.3332C9.9999 10.9796 10.1404 10.6404 10.3904 10.3904C10.6405 10.1403 10.9796 9.99984 11.3332 9.99984H13.3332C13.6869 9.99984 14.026 10.1403 14.276 10.3904C14.5261 10.6404 14.6666 10.9796 14.6666 11.3332V13.3332Z"
              fill="#C1B19D"/>
    </g>
    <defs>
        <clipPath id="clip0_259_838">
            <rect width="16" height="16" fill="white"/>
        </clipPath>
    </defs>
</svg>
