<svg width="18" height="18" viewBox="0 0 18 18" fill="none" xmlns="http://www.w3.org/2000/svg">
    <path d="M8.99999 10.3334C8.63333 10.3334 8.33333 10.0334 8.33333 9.66677V5.66676C8.33333 5.3001 8.63333 5.0001 8.99999 5.0001C9.36666 5.0001 9.66666 5.3001 9.66666 5.66676V9.66677C9.66666 10.0334 9.36666 10.3334 8.99999 10.3334ZM8.99999 11.6668C8.63333 11.6668 8.33333 11.9668 8.33333 12.3334C8.33333 12.7001 8.63333 13.0001 8.99999 13.0001C9.36666 13.0001 9.66666 12.7001 9.66666 12.3334C9.66666 11.9668 9.36666 11.6668 8.99999 11.6668ZM10.4133 16.4401L11.8533 15.0001H13C14.1 15.0001 15 14.1001 15 13.0001V11.8534L16.44 10.4134C16.82 10.0334 17.0267 9.53343 17.0267 9.0001C17.0267 8.46676 16.82 7.96676 16.44 7.58676L15 6.14676V5.0001C15 3.9001 14.1 3.0001 13 3.0001H11.8533L10.4133 1.5601C9.63333 0.780098 8.36666 0.780098 7.58666 1.5601L6.14666 3.0001H4.99999C3.89999 3.0001 2.99999 3.9001 2.99999 5.0001V6.14676L1.55999 7.58676C1.18666 7.96676 0.973328 8.46676 0.973328 9.0001C0.973328 9.53343 1.17999 10.0334 1.55999 10.4134L2.99999 11.8534V13.0001C2.99999 14.1001 3.89999 15.0001 4.99999 15.0001H6.14666L7.58666 16.4401C7.97333 16.8268 8.48666 17.0268 8.99999 17.0268C9.51333 17.0268 10.0267 16.8334 10.4133 16.4401ZM6.41999 4.33343C6.59999 4.33343 6.76666 4.2601 6.89333 4.1401L8.52666 2.50676C8.78666 2.24676 9.20666 2.24676 9.46666 2.50676L11.1 4.1401C11.2267 4.26676 11.3933 4.33343 11.5733 4.33343H12.9933C13.36 4.33343 13.66 4.63343 13.66 5.0001V6.42676C13.66 6.60676 13.7333 6.77343 13.8533 6.9001L15.4867 8.53343C15.6133 8.6601 15.68 8.82677 15.68 9.00677C15.68 9.18677 15.6133 9.35343 15.4867 9.4801L13.8533 11.1134C13.7267 11.2401 13.66 11.4068 13.66 11.5868V13.0134C13.66 13.3801 13.36 13.6801 12.9933 13.6801H11.5667C11.3867 13.6801 11.22 13.7534 11.0933 13.8734L9.45999 15.5068C9.19999 15.7668 8.77999 15.7668 8.51999 15.5068L6.88666 13.8734C6.75999 13.7468 6.59333 13.6801 6.41333 13.6801H4.98666C4.61999 13.6801 4.31999 13.3801 4.31999 13.0134V11.5868C4.31999 11.4068 4.24666 11.2401 4.12666 11.1134L2.49333 9.4801C2.36666 9.35343 2.29999 9.18677 2.29999 9.00677C2.29999 8.82677 2.36666 8.6601 2.49333 8.53343L4.12666 6.9001C4.25333 6.77343 4.31999 6.60676 4.31999 6.42676V5.0001C4.31999 4.63343 4.61999 4.33343 4.98666 4.33343H6.40666H6.41999Z"
          fill="#EBEF27"/>
</svg>
