<svg width="16" height="16" viewBox="0 0 16 16" fill="none" xmlns="http://www.w3.org/2000/svg">
<path d="M5.55799 8.8815L7.08224 7.35725L5.55799 5.833C5.29393 5.57797 5.28659 5.15712 5.54165 4.89306C5.79668 4.629 6.21752 4.62166 6.48159 4.87672C6.48712 4.88206 6.49259 4.88753 6.49793 4.89306L8.02218 6.41731L9.54643 4.89306C9.80149 4.629 10.2223 4.62169 10.4864 4.87675C10.7504 5.13181 10.7577 5.55262 10.5027 5.81669C10.4973 5.82222 10.4919 5.82766 10.4864 5.833L8.96212 7.35725L10.4864 8.8815C10.7504 9.13656 10.7577 9.55737 10.5027 9.82144C10.2476 10.0855 9.82681 10.0928 9.56274 9.83775C9.55721 9.83241 9.55177 9.82697 9.54643 9.82144L8.02218 8.29719L6.49793 9.82144C6.23387 10.0765 5.81306 10.0692 5.55799 9.80512C5.30918 9.54753 5.30918 9.13912 5.55799 8.8815ZM2.87046 12.5455C-0.0193208 9.72466 -0.0751956 5.09522 2.74571 2.20541C5.56662 -0.684406 10.1961 -0.74025 13.0858 2.08066C13.1217 2.11572 13.1573 2.15116 13.1925 2.18694C16.0479 5.04247 16.0479 9.67206 13.1925 12.5276L10.5389 14.9798C9.13077 16.3436 6.89277 16.338 5.49152 14.9672L2.87046 12.5455ZM2.03955 7.35728C2.03521 8.94484 2.66618 10.4682 3.7918 11.5877L6.40755 14.0046C7.30559 14.8628 8.71815 14.8684 9.6229 14.0172L12.2712 11.5697C14.6026 9.22816 14.5945 5.44 12.2529 3.10859C9.9114 0.777188 6.12324 0.785344 3.79184 3.12687C2.66615 4.24637 2.03521 5.76972 2.03955 7.35728Z" fill="#2C5EE0"/>
</svg>
