<svg width="16" height="16" viewBox="0 0 16 16" fill="none" xmlns="http://www.w3.org/2000/svg">
<path d="M6.36565 0.0343752C6.06565 0.10625 5.7969 0.328125 5.6594 0.621875L5.57815 0.796875L5.56252 1.8125L5.5469 2.825L5.41565 2.8625C5.0219 2.97812 4.5719 3.34375 4.3844 3.70312C4.17502 4.10312 4.18752 3.74062 4.18752 9.39687C4.18752 15.0437 4.17502 14.6781 4.3844 15.075C4.50315 15.3062 4.86252 15.6719 5.0844 15.7906C5.1719 15.8375 5.35315 15.9031 5.48752 15.9375C5.71565 15.9969 5.84065 16 8.00002 16C10.1594 16 10.2844 15.9969 10.5125 15.9375C10.6469 15.9031 10.8281 15.8375 10.9156 15.7906C11.15 15.6656 11.5031 15.3062 11.6219 15.0719C11.825 14.6656 11.8125 15.0281 11.8125 9.39687C11.8125 3.74062 11.825 4.10312 11.6156 3.70312C11.4281 3.34375 10.9781 2.97812 10.5844 2.8625L10.4531 2.825L10.4375 1.8125L10.4219 0.796875L10.3406 0.621875C10.2344 0.396874 10.0406 0.203125 9.81565 0.0968752L9.64065 0.015625L8.06252 0.00937462C7.19377 0.00624943 6.43127 0.0187502 6.36565 0.0343752ZM9.51565 0.73125C9.72815 0.821875 9.7344 0.84375 9.74377 1.86562L9.75315 2.78125H8.00002H6.2469L6.25627 1.86562C6.26565 0.849999 6.2719 0.821875 6.47815 0.734375C6.62815 0.66875 9.3594 0.66875 9.51565 0.73125ZM10.4719 3.55625C10.6938 3.64687 10.9188 3.8625 11.025 4.0875C11.1063 4.25937 11.1094 4.2875 11.1188 4.9125L11.1281 5.5625H8.00002H4.8719L4.88127 4.9125C4.89065 4.2875 4.89377 4.25937 4.97502 4.0875C5.11565 3.78125 5.39065 3.56875 5.72815 3.5C5.80002 3.4875 6.8594 3.47812 8.07815 3.47812L10.2969 3.48438L10.4719 3.55625ZM11.125 6.95312V7.65625H8.00002H4.87502V6.95312V6.25H8.00002H11.125V6.95312ZM11.1188 11.4281L11.1094 14.5156L11.025 14.6938C10.9344 14.8875 10.7375 15.1 10.5625 15.1875C10.3375 15.3031 10.1375 15.3125 8.00002 15.3125C5.86252 15.3125 5.66252 15.3031 5.43752 15.1875C5.26252 15.1 5.06565 14.8875 4.97502 14.6938L4.89065 14.5156L4.88127 11.4281L4.87502 8.34375H8.00002H11.125L11.1188 11.4281Z" fill="#2993E4"/>
</svg>
