<svg width="16" height="16" viewBox="0 0 16 16" fill="none" xmlns="http://www.w3.org/2000/svg">
    <g clip-path="url(#clip0_226_1158)">
        <path d="M10 0H6.00002C5.11629 0.00105857 4.26906 0.352588 3.64417 0.97748C3.01928 1.60237 2.66775 2.4496 2.66669 3.33333V12.6667C2.66775 13.5504 3.01928 14.3976 3.64417 15.0225C4.26906 15.6474 5.11629 15.9989 6.00002 16H10C10.8838 15.9989 11.731 15.6474 12.3559 15.0225C12.9808 14.3976 13.3323 13.5504 13.3334 12.6667V3.33333C13.3323 2.4496 12.9808 1.60237 12.3559 0.97748C11.731 0.352588 10.8838 0.00105857 10 0V0ZM6.00002 1.33333H10C10.5305 1.33333 11.0392 1.54405 11.4142 1.91912C11.7893 2.29419 12 2.8029 12 3.33333V10.6667H4.00002V3.33333C4.00002 2.8029 4.21073 2.29419 4.58581 1.91912C4.96088 1.54405 5.46959 1.33333 6.00002 1.33333ZM10 14.6667H6.00002C5.46959 14.6667 4.96088 14.456 4.58581 14.0809C4.21073 13.7058 4.00002 13.1971 4.00002 12.6667V12H12V12.6667C12 13.1971 11.7893 13.7058 11.4142 14.0809C11.0392 14.456 10.5305 14.6667 10 14.6667Z"
              fill="black"/>
        <path d="M8.00011 13.9994C8.3683 13.9994 8.66678 13.7009 8.66678 13.3327C8.66678 12.9645 8.3683 12.666 8.00011 12.666C7.63191 12.666 7.33344 12.9645 7.33344 13.3327C7.33344 13.7009 7.63191 13.9994 8.00011 13.9994Z"
              fill="black"/>
    </g>
    <defs>
        <clipPath id="clip0_226_1158">
            <rect width="16" height="16" fill="white"/>
        </clipPath>
    </defs>
</svg>
