<svg width="16" height="16" viewBox="0 0 16 16" fill="none" xmlns="http://www.w3.org/2000/svg">
    <path d="M2.20312 2.02812C2.16875 2.04375 2.1125 2.0875 2.07812 2.125C2.01562 2.19375 2.01562 2.2375 2.01562 8.00312V13.8125L2.10312 13.8969L2.1875 13.9844H8H13.8125L13.8969 13.8969L13.9844 13.8125V8V2.1875L13.8969 2.10312L13.8125 2.01562L8.0375 2.00937C4.8625 2.00625 2.2375 2.01562 2.20312 2.02812ZM13.3281 8V13.3281H8H2.67188L2.6625 8.03125C2.65938 5.11875 2.6625 2.71562 2.67188 2.69375C2.68125 2.6625 3.76562 2.65625 8.00625 2.6625L13.3281 2.67188V8Z"
          fill="#A8CCD7"/>
    <path d="M3.43438 3.43432C3.28126 3.59057 3.32188 3.84994 3.51563 3.95307C3.71251 4.06244 3.95313 3.94057 3.99063 3.70932C4.03751 3.40619 3.65313 3.21557 3.43438 3.43432Z"
          fill="#A8CCD7"/>
    <path d="M12.1688 3.37807C12.0625 3.43119 11.9906 3.58432 12.0094 3.70932C12.0469 3.94057 12.2875 4.06244 12.4844 3.95307C12.775 3.79994 12.675 3.34057 12.3531 3.34682C12.2875 3.34682 12.2063 3.36244 12.1688 3.37807Z"
          fill="#A8CCD7"/>
    <path d="M6.13125 7.725C5.30937 8.54688 4.725 9.15312 4.69687 9.2125C4.60625 9.425 4.76875 9.65625 5.0125 9.65625C5.1375 9.65625 5.15 9.64687 6.55312 8.24375C8.09062 6.70625 8.07187 6.73125 7.95312 6.51562C7.89062 6.39687 7.79062 6.34375 7.63125 6.34375C7.52187 6.34375 7.45625 6.40625 6.13125 7.725Z"
          fill="#A8CCD7"/>
    <path d="M9.44686 7.75625C7.90936 9.29375 7.92811 9.26875 8.04686 9.48438C8.10936 9.60312 8.20936 9.65625 8.36873 9.65625C8.47811 9.65625 8.54373 9.59375 9.86873 8.27188C10.6906 7.45312 11.275 6.84687 11.3031 6.7875C11.3937 6.575 11.2312 6.34375 10.9875 6.34375C10.8625 6.34375 10.85 6.35312 9.44686 7.75625Z"
          fill="#A8CCD7"/>
    <path d="M3.49377 12.0531C3.31877 12.1656 3.28752 12.4187 3.4344 12.5656C3.6594 12.7875 4.0469 12.5843 3.98752 12.275C3.9469 12.0562 3.67815 11.9343 3.49377 12.0531Z"
          fill="#A8CCD7"/>
    <path d="M12.2188 12.0218C12.125 12.0562 12.0313 12.1687 12.0125 12.275C11.9531 12.5843 12.3406 12.7875 12.5656 12.5656C12.8094 12.3187 12.5438 11.9031 12.2188 12.0218Z"
          fill="#A8CCD7"/>
</svg>
