<svg width="16" height="16" viewBox="0 0 16 16" fill="none" xmlns="http://www.w3.org/2000/svg">
<g clip-path="url(#clip0_226_1142)">
<path d="M13.2994 3.69117L10.9768 1.36717C10.5443 0.932596 10.03 0.588057 9.46358 0.353476C8.89716 0.118895 8.28985 -0.0010743 7.67677 0.000503647H4.66677C3.78304 0.00156222 2.93581 0.353092 2.31091 0.977984C1.68602 1.60288 1.33449 2.45011 1.33344 3.33384V12.6672C1.33449 13.5509 1.68602 14.3981 2.31091 15.023C2.93581 15.6479 3.78304 15.9994 4.66677 16.0005H11.3334C12.2172 15.9994 13.0644 15.6479 13.6893 15.023C14.3142 14.3981 14.6657 13.5509 14.6668 12.6672V6.9905C14.6684 6.37745 14.5484 5.77016 14.3137 5.20382C14.079 4.63748 13.7343 4.12333 13.2994 3.69117ZM12.3568 4.63384C12.5603 4.84327 12.7354 5.07863 12.8774 5.33384H10.0001C9.82329 5.33384 9.65372 5.2636 9.5287 5.13857C9.40367 5.01355 9.33344 4.84398 9.33344 4.66717V1.78984C9.58872 1.93179 9.82429 2.10661 10.0341 2.30984L12.3568 4.63384ZM13.3334 12.6672C13.3334 13.1976 13.1227 13.7063 12.7476 14.0814C12.3726 14.4565 11.8639 14.6672 11.3334 14.6672H4.66677C4.13634 14.6672 3.62763 14.4565 3.25255 14.0814C2.87748 13.7063 2.66677 13.1976 2.66677 12.6672V3.33384C2.66677 2.8034 2.87748 2.2947 3.25255 1.91962C3.62763 1.54455 4.13634 1.33384 4.66677 1.33384H7.67677C7.7861 1.33384 7.8921 1.35517 8.0001 1.36517V4.66717C8.0001 5.1976 8.21082 5.70631 8.58589 6.08138C8.96096 6.45646 9.46967 6.66717 10.0001 6.66717H13.3021C13.3121 6.77517 13.3334 6.8805 13.3334 6.9905V12.6672Z" fill="white"/>
</g>
<defs>
<clipPath id="clip0_226_1142">
<rect width="16" height="16" fill="white"/>
</clipPath>
</defs>
</svg>
