<svg width="16" height="16" viewBox="0 0 16 16" fill="none" xmlns="http://www.w3.org/2000/svg">
    <g clip-path="url(#clip0_226_1161)">
        <path d="M7.775 1.22187C7.70312 1.25937 7.63125 1.33125 7.59375 1.40625C7.53438 1.52187 7.53125 1.5875 7.53125 2.45312C7.53125 3.31875 7.53438 3.38438 7.59375 3.5C7.66563 3.64062 7.84375 3.75 8 3.75C8.15625 3.75 8.33438 3.64062 8.40625 3.5C8.46562 3.38438 8.46875 3.31875 8.46875 2.45312C8.46875 1.5875 8.46562 1.52187 8.40625 1.40625C8.29063 1.17812 8.00938 1.09687 7.775 1.22187Z"
              fill="#AAA9AD"/>
        <path d="M4.42187 2.60958C4.14375 2.70645 4.03125 3.0252 4.18125 3.29708C4.2 3.33145 4.5 3.64395 4.85 3.9877C5.52187 4.65645 5.60937 4.71583 5.83125 4.67208C5.97812 4.64708 6.14687 4.49083 6.19062 4.34083C6.26562 4.09395 6.21875 4.02208 5.52187 3.31895C5.175 2.96895 4.85625 2.66583 4.8125 2.64395C4.68125 2.5752 4.55312 2.56583 4.42187 2.60958Z"
              fill="#AAA9AD"/>
        <path d="M11.3906 2.578C11.375 2.58425 11.3187 2.59675 11.2656 2.60925C11.2 2.62488 10.9875 2.81238 10.5375 3.25925C9.9125 3.88113 9.78125 4.04363 9.78125 4.203C9.78125 4.40925 9.96875 4.63425 10.1719 4.67488C10.3906 4.7155 10.4812 4.653 11.1344 4.003C11.475 3.6655 11.7812 3.34363 11.8156 3.28738C11.9469 3.08113 11.875 2.76863 11.6719 2.653C11.5719 2.59675 11.4406 2.56238 11.3906 2.578Z"
              fill="#AAA9AD"/>
        <path d="M5.275 5.97188C5.20937 6.00313 5.13438 6.07812 5.10625 6.13125C5.07812 6.18437 4.85938 6.85625 4.61875 7.62187C4.38125 8.3875 4.12188 9.21562 4.04375 9.45937L3.90313 9.90625H2.7625C1.67813 9.90625 1.61563 9.90937 1.49688 9.96875C1.4125 10.0156 1.35312 10.075 1.3125 10.1656C1.22188 10.3562 0 14.2906 0 14.3875C0 14.5312 0.115625 14.7125 0.25 14.7812C0.371875 14.8438 0.415625 14.8438 8 14.8438C15.5844 14.8438 15.6281 14.8438 15.75 14.7812C15.8844 14.7125 16 14.5312 16 14.3875C16 14.2906 14.7781 10.3562 14.6875 10.1656C14.6469 10.075 14.5875 10.0156 14.5031 9.96875C14.3844 9.90937 14.3219 9.90625 13.2375 9.90625H12.0969L11.9563 9.45937C11.8781 9.21562 11.6188 8.3875 11.3813 7.62187C11.1406 6.85625 10.9219 6.18437 10.8938 6.13125C10.8656 6.075 10.7875 6.00313 10.7188 5.96875C10.6 5.90625 10.5406 5.90625 7.99375 5.90625C5.46563 5.90938 5.3875 5.90938 5.275 5.97188ZM10.2937 7.2875C10.7563 8.75625 11.0938 9.85313 11.0938 9.87812C11.0938 9.89375 9.8875 9.90625 8 9.90625C5.82188 9.90625 4.90625 9.89687 4.90625 9.87187C4.90625 9.84375 5.24375 8.75 5.69063 7.33437L5.84688 6.84375H8H10.1531L10.2937 7.2875ZM6.55938 11.3344C7.00625 12.75 7.34375 13.8438 7.34375 13.8719C7.34375 13.8969 6.42188 13.9062 4.23438 13.9062C2.08438 13.9062 1.125 13.8969 1.125 13.875C1.125 13.8469 1.80625 11.6469 2.00312 11.0375L2.06875 10.8438H4.23438H6.40313L6.55938 11.3344ZM8.59375 10.8656C8.59375 10.9156 8.01562 12.75 8 12.75C7.98438 12.75 7.40313 10.9125 7.40625 10.8656C7.40625 10.8531 7.675 10.8438 8 10.8438C8.32812 10.8438 8.59375 10.8531 8.59375 10.8656ZM14.075 11.2875C14.5375 12.7562 14.875 13.8531 14.875 13.8781C14.875 13.8938 13.6625 13.9062 11.7656 13.9062C9.57812 13.9062 8.65625 13.8969 8.65625 13.8719C8.65625 13.8438 8.99375 12.75 9.44063 11.3344L9.59688 10.8438H11.7656H13.9344L14.075 11.2875Z"
              fill="#AAA9AD"/>
    </g>
    <defs>
        <clipPath id="clip0_226_1161">
            <rect width="16" height="16" fill="white"/>
        </clipPath>
    </defs>
</svg>
