<svg width="16" height="16" viewBox="0 0 16 16" fill="none" xmlns="http://www.w3.org/2000/svg">
    <g clip-path="url(#clip0_226_1100)">
        <path d="M15.4127 0.581194C15.2043 0.37332 14.9524 0.214254 14.6752 0.115458C14.3979 0.0166625 14.1022 -0.0194029 13.8093 0.00986068C11.9473 0.189861 5.68536 0.965194 3.26669 3.38119C2.11054 4.5405 1.42496 6.08708 1.34234 7.72227C1.25973 9.35746 1.78594 10.9653 2.81936 12.2352L0.192695 14.8619C0.0712566 14.9876 0.00406046 15.156 0.0055794 15.3308C0.00709835 15.5056 0.0772109 15.6728 0.200816 15.7964C0.324421 15.92 0.49163 15.9901 0.666427 15.9916C0.841225 15.9932 1.00963 15.926 1.13536 15.8045L3.76202 13.1779C5.03169 14.2127 6.63993 14.74 8.27582 14.6578C9.91171 14.5757 11.459 13.89 12.6187 12.7332C15.0693 10.2819 15.8187 4.03919 15.9913 2.18453C16.0196 1.89111 15.9823 1.59508 15.8822 1.31781C15.7822 1.04055 15.6218 0.788954 15.4127 0.581194ZM11.6793 11.7879C10.7704 12.6935 9.56283 13.2374 8.28221 13.318C7.00158 13.3986 5.73539 13.0104 4.72002 12.2259L11.1413 5.80453C11.2628 5.67879 11.33 5.51039 11.3285 5.33559C11.3269 5.1608 11.2568 4.99359 11.1332 4.86998C11.0096 4.74638 10.8424 4.67626 10.6676 4.67474C10.4928 4.67323 10.3244 4.74042 10.1987 4.86186L3.77402 11.2832C2.98934 10.2679 2.60105 9.00166 2.68165 7.72099C2.76225 6.44033 3.30624 5.23279 4.21202 4.32386C5.88469 2.65186 10.4967 1.66653 13.938 1.33653C14.0355 1.32704 14.1338 1.33915 14.2261 1.37198C14.3184 1.40481 14.4023 1.45757 14.4718 1.52649C14.5414 1.59542 14.5949 1.67883 14.6286 1.77078C14.6623 1.86273 14.6753 1.96098 14.6667 2.05853C14.3333 5.64986 13.3727 10.0912 11.676 11.7879H11.6793Z"
              fill="#75BC7B"/>
    </g>
    <defs>
        <clipPath id="clip0_226_1100">
            <rect width="16" height="16" fill="white"/>
        </clipPath>
    </defs>
</svg>
