<svg width="16" height="16" viewBox="0 0 16 16" fill="none" xmlns="http://www.w3.org/2000/svg">
<g clip-path="url(#clip0_226_1144)">
<path d="M12.0001 0H4.0001C3.82329 0 3.65372 0.0702379 3.5287 0.195262C3.40367 0.320286 3.33344 0.489856 3.33344 0.666667C3.33344 0.843478 3.40367 1.01305 3.5287 1.13807C3.65372 1.2631 3.82329 1.33333 4.0001 1.33333H4.66677V12.6667C4.66677 13.5507 5.01796 14.3986 5.64308 15.0237C6.2682 15.6488 7.11605 16 8.0001 16C8.88416 16 9.732 15.6488 10.3571 15.0237C10.9822 14.3986 11.3334 13.5507 11.3334 12.6667V1.33333H12.0001C12.1769 1.33333 12.3465 1.2631 12.4715 1.13807C12.5965 1.01305 12.6668 0.843478 12.6668 0.666667C12.6668 0.489856 12.5965 0.320286 12.4715 0.195262C12.3465 0.0702379 12.1769 0 12.0001 0V0ZM8.0001 14.6667C7.46967 14.6667 6.96096 14.456 6.58589 14.0809C6.21081 13.7058 6.0001 13.1971 6.0001 12.6667V6H10.0001V12.6667C10.0001 13.1971 9.78939 13.7058 9.41432 14.0809C9.03924 14.456 8.53053 14.6667 8.0001 14.6667ZM10.0001 4.66667H6.0001V1.33333H10.0001V4.66667Z" fill="#81C42D"/>
</g>
<defs>
<clipPath id="clip0_226_1144">
<rect width="16" height="16" fill="white"/>
</clipPath>
</defs>
</svg>
